<?xml version="1.0" ?><svg viewBox="0 0 128 128" xmlns="http://www.w3.org/2000/svg" xmlns:xlink="http://www.w3.org/1999/xlink"><defs><style>.cls-1,.cls-2,.cls-7{fill:none;}.cls-2,.cls-7{stroke:#4d91bb;stroke-linecap:square;stroke-miterlimit:10;}.cls-2{stroke-width:9px;}.cls-3{fill:#2175aa;}.cls-4{fill:#87dbec;}.cls-5{fill:#4d91bb;}.cls-6{clip-path:url(#clip-path);}.cls-7{stroke-width:6px;}</style><clipPath id="clip-path"><circle class="cls-1" cx="64" cy="68.5" r="36"/></clipPath></defs><title/><g data-name="32 Bug Fixing" id="_32_Bug_Fixing"><line class="cls-2" x1="100" x2="109" y1="68.5" y2="68.5"/><line class="cls-2" x1="19" x2="28" y1="68.5" y2="68.5"/><line class="cls-2" x1="95.18" x2="102.97" y1="50.5" y2="46"/><line class="cls-2" x1="25.03" x2="32.82" y1="91" y2="86.5"/><line class="cls-2" x1="32.82" x2="25.03" y1="50.5" y2="46"/><line class="cls-2" x1="102.97" x2="95.18" y1="91" y2="86.5"/><path class="cls-3" d="M98.92,83.47l-5.39-3.11L89,88.15l5.38,3.11A38,38,0,0,0,98.92,83.47Z"/><path class="cls-3" d="M98.92,53.53a38,38,0,0,0-4.51-7.79L89,48.85l4.5,7.79Z"/><path class="cls-3" d="M29.08,53.53l5.39,3.11L39,48.85l-5.38-3.11A38,38,0,0,0,29.08,53.53Z"/><path class="cls-3" d="M95.5,73h6.22a36.87,36.87,0,0,0,0-9H95.5Z"/><path class="cls-3" d="M32.5,64H26.28a36.87,36.87,0,0,0,0,9H32.5Z"/><path class="cls-3" d="M39,88.15l-4.5-7.79-5.39,3.11a38,38,0,0,0,4.51,7.79Z"/><circle class="cls-4" cx="64" cy="68.5" r="36"/><path class="cls-5" d="M43.38,39a36,36,0,0,0,41.25,0,36,36,0,0,0-41.25,0Z"/><g class="cls-6"><line class="cls-7" x1="64" x2="64" y1="45.5" y2="104.5"/></g><path class="cls-2" d="M71.62,36.5a13,13,0,0,1,13-13"/><path class="cls-2" d="M56.38,36.5a13,13,0,0,0-13-13"/></g></svg>